<svg id="visual" viewBox="0 0 900 600" width="900" height="600" xmlns="http://www.w3.org/2000/svg" xmlns:xlink="http://www.w3.org/1999/xlink" version="1.1"><rect x="0" y="0" width="900" height="600" fill="#f7931a"></rect><g transform="translate(-99.88053740882657 41.148432241859894)"><path d="M426.1 -518.6C574.4 -383.3 732.4 -270.1 765.7 -128.1C799 14 707.8 185 587.2 287.5C466.7 390 316.7 424.1 158.3 517.4C0 610.8 -166.7 763.5 -297.4 746.6C-428.1 729.6 -522.8 543.1 -556.7 374.6C-590.6 206.1 -563.6 55.7 -544.5 -103.5C-525.4 -262.8 -514 -430.9 -424.6 -576.6C-335.1 -722.4 -167.6 -845.7 -14.4 -828.6C138.8 -811.5 277.7 -653.9 426.1 -518.6" fill="#ffffff"></path></g></svg>